<svg xmlns="http://www.w3.org/2000/svg" version="1.1" xmlns:xlink="http://www.w3.org/1999/xlink" xmlns:svgjs="http://svgjs.dev/svgjs" width="1500" height="1500" viewBox="0 0 1500 1500"><g transform="matrix(1,0,0,1,-0.323615160350073,-0.3236151603499593)"><svg viewBox="0 0 343 343" data-background-color="#ffffff" preserveAspectRatio="xMidYMid meet" height="1500" width="1500" xmlns="http://www.w3.org/2000/svg" xmlns:xlink="http://www.w3.org/1999/xlink"><g id="tight-bounds" transform="matrix(1,0,0,1,0.0740000000000407,0.07400000000001228)"><svg viewBox="0 0 342.85155851775386 342.85155851775386" height="342.85155851775386" width="342.85155851775386"><g><svg></svg></g><g><svg viewBox="0 0 342.85155851775386 342.85155851775386" height="342.85155851775386" width="342.85155851775386"><g><path d="M0 171.426c0-94.676 76.75-171.426 171.426-171.426 94.676 0 171.426 76.75 171.426 171.426 0 94.676-76.75 171.426-171.426 171.426-94.676 0-171.426-76.75-171.426-171.426zM171.426 330.643c87.933 0 159.217-71.284 159.217-159.217 0-87.933-71.284-159.217-159.217-159.218-87.933 0-159.217 71.284-159.218 159.218 0 87.933 71.284 159.217 159.218 159.217z" data-fill-palette-color="tertiary" fill="#8789fe" stroke="transparent"></path><ellipse rx="164.56874808852186" ry="164.56874808852186" cx="171.42577925887693" cy="171.42577925887693" fill="#8789fe" stroke="transparent" stroke-width="0" fill-opacity="1" data-fill-palette-color="tertiary"></ellipse></g><g transform="matrix(1,0,0,1,64.84655864529837,103.73797219089055)"><svg viewBox="0 0 213.1584412271571 135.37561413597277" height="135.37561413597277" width="213.1584412271571"><g><svg viewBox="0 0 213.1584412271571 135.37561413597277" height="135.37561413597277" width="213.1584412271571"><g><svg viewBox="0 0 213.1584412271571 135.37561413597277" height="135.37561413597277" width="213.1584412271571"><g id="textblocktransform"><svg viewBox="0 0 213.1584412271571 135.37561413597277" height="135.37561413597277" width="213.1584412271571" id="textblock"><g><svg viewBox="0 0 213.1584412271571 135.37561413597277" height="135.37561413597277" width="213.1584412271571"><g transform="matrix(1,0,0,1,0,0)"><svg width="213.1584412271571" viewBox="0.6 -35.52 57.269999999999996 36.370000000000005" height="135.37561413597277" data-palette-color="#ffffff"><path d="M28.4-10.13L28.4-10.13Q28.4-6.9 26.71-4.42 25.03-1.95 21.88-0.55 18.73 0.85 14.3 0.85L14.3 0.85Q9.4 0.85 6.09-0.59 2.78-2.02 0.6-4.15L0.6-4.15 4.75-8.75Q6.68-7.08 9-6.16 11.33-5.25 14.1-5.25L14.1-5.25Q15.83-5.25 17.13-5.75 18.43-6.25 19.15-7.2 19.88-8.15 19.88-9.5L19.88-9.5Q19.88-10.78 19.3-11.65 18.73-12.53 17.36-13.23 16-13.93 13.58-14.65L13.58-14.65Q9.53-15.9 7.06-17.4 4.6-18.9 3.49-20.88 2.38-22.85 2.38-25.48L2.38-25.48Q2.38-28.65 4.14-30.9 5.9-33.15 8.88-34.34 11.85-35.52 15.43-35.52L15.43-35.52Q19.45-35.52 22.53-34.36 25.6-33.2 27.85-31.05L27.85-31.05 23.98-26.6Q22.23-28.08 20.2-28.79 18.18-29.5 16.07-29.5L16.07-29.5Q14.53-29.5 13.35-29.11 12.18-28.73 11.53-27.98 10.88-27.23 10.88-26.1L10.88-26.1Q10.88-25 11.5-24.25 12.13-23.5 13.68-22.84 15.23-22.18 17.98-21.3L17.98-21.3Q21.25-20.3 23.59-18.91 25.93-17.53 27.16-15.43 28.4-13.33 28.4-10.13ZM57.02 0L34.65 0 34.65-34.65 42.85-34.65 42.85-6.48 57.87-6.48 57.02 0Z" opacity="1" transform="matrix(1,0,0,1,0,0)" fill="#ffffff" class="wordmark-text-0" data-fill-palette-color="quaternary" id="text-0"></path></svg></g></svg></g></svg></g></svg></g></svg></g></svg></g></svg></g><defs></defs></svg><rect width="342.85155851775386" height="342.85155851775386" fill="none" stroke="none" visibility="hidden"></rect></g></svg></g></svg>