<svg xmlns="http://www.w3.org/2000/svg" version="1.1" xmlns:xlink="http://www.w3.org/1999/xlink" xmlns:svgjs="http://svgjs.dev/svgjs" width="1500" height="935" viewBox="0 0 1500 935"><g transform="matrix(1,0,0,1,-0.9090909090909918,0.3785425101214628)"><svg viewBox="0 0 396 247" data-background-color="#ddcaea" preserveAspectRatio="xMidYMid meet" height="935" width="1500" xmlns="http://www.w3.org/2000/svg" xmlns:xlink="http://www.w3.org/1999/xlink"><g id="tight-bounds" transform="matrix(1,0,0,1,0.2400000000000091,-0.09999999999999432)"><svg viewBox="0 0 395.52 247.2" height="247.2" width="395.52"><g><svg></svg></g><g><svg viewBox="0 0 395.52 247.2" height="247.2" width="395.52"><g transform="matrix(1,0,0,1,75.54432,51.6620986177618)"><svg viewBox="0 0 244.43135999999998 143.8758027644764" height="143.8758027644764" width="244.43135999999998"><g><svg viewBox="0 0 259.54107902205106 152.7696" height="143.8758027644764" width="244.43135999999998"><g transform="matrix(1,0,0,1,122.46960834535938,0)"><svg viewBox="0 0 137.0714706766917 152.7696" height="152.7696" width="137.0714706766917"><g id="textblocktransform"><svg viewBox="0 0 137.0714706766917 152.7696" height="152.7696" width="137.0714706766917" id="textblock"><g><svg viewBox="0 0 137.0714706766917 152.7696" height="152.7696" width="137.0714706766917"><g transform="matrix(1,0,0,1,0,0)"><svg width="137.0714706766917" viewBox="0.7 -39.45 35.8 39.900000000000006" height="152.7696" data-palette-color="#920df9"><path d="M9.95 0.45L9.95 0.45Q9.05 0.45 7.4 0.18 5.75-0.1 3.93-1 2.1-1.9 0.7-3.75L0.7-3.75 4.05-7.4Q5.4-5.9 6.5-5.25 7.6-4.6 8.47-4.48 9.35-4.35 9.9-4.35L9.9-4.35Q11.45-4.35 11.9-5 12.35-5.65 12.35-6.2L12.35-6.2Q12.35-6.95 11.73-7.43 11.1-7.9 10.13-8.25 9.15-8.6 8.1-9L8.1-9Q5.5-10 4.38-11.65 3.25-13.3 3.25-15.25L3.25-15.25Q3.25-16.25 3.63-17.53 4-18.8 4.93-20 5.85-21.2 7.53-22 9.2-22.8 11.85-22.8L11.85-22.8Q13.35-22.8 14.88-22.58 16.4-22.35 17.88-21.73 19.35-21.1 20.7-19.95L20.7-19.95 17.55-16Q16.5-17.05 15.38-17.6 14.25-18.15 12.95-18.15L12.95-18.15Q12-18.15 11.45-17.88 10.9-17.6 10.65-17.15 10.4-16.7 10.4-16.2L10.4-16.2Q10.4-15.4 11.15-14.9 11.9-14.4 12.98-14.05 14.05-13.7 15.1-13.25L15.1-13.25Q16.6-12.65 17.65-11.75 18.7-10.85 19.18-9.63 19.65-8.4 19.45-6.75L19.45-6.75Q19.3-5.3 18.6-3.98 17.9-2.65 16.73-1.65 15.55-0.65 13.85-0.1 12.15 0.45 9.95 0.45ZM24.7 0L29.5-39.45 36.5-39.45 31.7 0 24.7 0Z" opacity="1" transform="matrix(1,0,0,1,0,0)" fill="#920df9" class="wordmark-text-0" data-fill-palette-color="primary" id="text-0"></path></svg></g></svg></g></svg></g></svg></g><g transform="matrix(1,0,0,1,0,16.238811251479063)"><svg viewBox="0 0 86.40437225575938 120.29197749704187" height="120.29197749704187" width="86.40437225575938"><g><svg xmlns="http://www.w3.org/2000/svg" xmlns:xlink="http://www.w3.org/1999/xlink" version="1.1" x="0" y="0" viewBox="7.3789969847457035 5.441237864611517 283.8230030152542 395.1377621353884" enable-background="new 0 0 299.188 410.57" xml:space="preserve" height="120.29197749704187" width="86.40437225575938" class="icon-icon-0" data-fill-palette-color="accent" id="icon-0"><g fill="#25b5f7" data-fill-palette-color="accent"><path fill="#25b5f7" d="M139.974 82.317h0.162c7.248 0 14.293 1.526 20.935 4.257 0.622 0.256 1.266 0.519 1.899 0.519 1.967 0 3.832-1.239 4.626-3.171 1.051-2.554-0.169-5.546-2.724-6.596-7.854-3.229-16.177-5.008-24.736-5.008h-0.162c-2.763 0-5 2.239-5 5C134.974 80.079 137.212 82.317 139.974 82.317z" data-fill-palette-color="accent"></path><path fill="#25b5f7" d="M178.964 98.611c5.167 5.136 9.207 11.13 12.007 17.818 0.803 1.917 2.658 3.071 4.613 3.071 0.645 0 1.298-0.125 1.93-0.389 2.547-1.066 3.748-3.996 2.682-6.543-3.308-7.903-8.079-14.985-14.182-21.049-1.958-1.945-5.123-1.937-7.071 0.022C176.996 93.499 177.005 96.665 178.964 98.611z" data-fill-palette-color="accent"></path><path fill="#25b5f7" d="M82.727 156.15c-2.549 1.061-3.756 3.988-2.694 6.538 3.293 7.908 8.052 14.999 14.146 21.075 0.976 0.974 2.253 1.46 3.529 1.46 1.282 0 2.563-0.49 3.54-1.47 1.95-1.955 1.946-5.121-0.01-7.071-5.159-5.146-9.188-11.147-11.974-17.838C88.204 156.294 85.274 155.086 82.727 156.15z" data-fill-palette-color="accent"></path><path fill="#25b5f7" d="M97.558 100.292c1.282 0 2.565-0.491 3.543-1.472 5.141-5.164 11.14-9.198 17.829-11.992 2.548-1.064 3.751-3.992 2.688-6.541-1.064-2.549-3.994-3.753-6.541-2.687-7.905 3.301-14.992 8.067-21.062 14.164-1.948 1.957-1.941 5.123 0.016 7.071C95.006 99.806 96.282 100.292 97.558 100.292z" data-fill-palette-color="accent"></path><path fill="#25b5f7" d="M80.248 142.447c2.762 0 5.191-1.895 5.191-4.655v-0.11c0-7.266 1.199-14.354 3.941-21.009 1.054-2.553-0.354-5.505-2.907-6.558-2.558-1.052-5.478 0.104-6.528 2.658-3.218 7.804-4.858 15.956-4.885 24.544h-0.005c0 0.023 0.003-0.062 0.004-0.039-0.001 0.05-0.004 0.039-0.004 0.039h0.011C75.18 140.317 77.553 142.447 80.248 142.447z" data-fill-palette-color="accent"></path><path fill="#25b5f7" d="M104.966 19.828c0.455 0 0.918-0.062 1.377-0.194 7.237-2.068 14.726-3.473 22.255-4.174 2.75-0.256 4.771-2.693 4.515-5.443-0.257-2.749-2.699-4.762-5.442-4.514-8.144 0.759-16.242 2.279-24.073 4.516-2.654 0.759-4.192 3.526-3.435 6.181C100.79 18.396 102.791 19.828 104.966 19.828z" data-fill-palette-color="accent"></path><path fill="#25b5f7" d="M151.254 15.421c7.533 0.676 15.025 2.055 22.27 4.098 0.454 0.128 0.91 0.189 1.359 0.189 2.183 0 4.188-1.44 4.811-3.644 0.749-2.658-0.798-5.42-3.455-6.17-7.837-2.21-15.941-3.701-24.089-4.433-2.765-0.243-5.182 1.783-5.428 4.533C146.475 12.745 148.504 15.174 151.254 15.421z" data-fill-palette-color="accent"></path><path fill="#25b5f7" d="M260.775 114.847c0.452 2.402 2.551 4.077 4.908 4.077 0.307 0 0.616-0.028 0.93-0.087 2.714-0.51 4.5-3.124 3.99-5.838-1.51-8.024-3.777-15.948-6.744-23.551-1.003-2.573-3.903-3.843-6.477-2.841-2.571 1.004-3.845 3.903-2.841 6.476C257.284 100.109 259.381 107.432 260.775 114.847z" data-fill-palette-color="accent"></path><path fill="#25b5f7" d="M194.654 27.664c6.75 3.352 13.233 7.357 19.271 11.904 0.9 0.679 1.957 1.007 3.005 1.007 1.517 0 3.015-0.688 3.998-1.992 1.66-2.206 1.22-5.341-0.986-7.002-6.528-4.917-13.54-9.249-20.84-12.874-2.475-1.228-5.474-0.218-6.702 2.255C191.171 23.435 192.18 26.435 194.654 27.664z" data-fill-palette-color="accent"></path><path fill="#25b5f7" d="M262.439 137.389v0.292c0 7.581-0.468 15.169-1.839 22.556-0.504 2.715 1.516 5.325 4.23 5.829 0.31 0.057 0.615 0.085 0.918 0.085 2.362 0 4.236-1.682 4.684-4.088 1.481-7.987 2.007-16.19 2.007-24.431v-0.242c0-2.761-2.238-5-5-5S262.439 134.628 262.439 137.389z" data-fill-palette-color="accent"></path><path fill="#25b5f7" d="M244.393 72.843c0.946 1.521 2.579 2.356 4.248 2.356 0.901 0 1.815-0.244 2.64-0.757 2.344-1.46 3.06-4.544 1.599-6.888-4.311-6.917-9.294-13.48-14.811-19.504-1.865-2.037-5.027-2.177-7.064-0.311-2.035 1.865-2.176 5.028-0.311 7.063C235.797 60.376 240.406 66.446 244.393 72.843z" data-fill-palette-color="accent"></path><path fill="#25b5f7" d="M254.645 182.017c-2.724 7.027-6.123 13.847-10.105 20.27-1.456 2.347-0.731 5.429 1.614 6.884 0.82 0.509 1.729 0.752 2.63 0.752 1.673 0 3.308-0.84 4.254-2.366 4.31-6.947 7.986-14.324 10.933-21.926 0.997-2.575-0.28-5.472-2.855-6.469C258.54 178.163 255.643 179.443 254.645 182.017z" data-fill-palette-color="accent"></path><path fill="#25b5f7" d="M25.681 182.15c-1-2.574-3.896-3.85-6.473-2.849-2.574 1-3.85 3.897-2.849 6.472 2.952 7.595 6.637 14.966 10.953 21.907 0.946 1.522 2.58 2.36 4.251 2.36 0.9 0 1.812-0.244 2.635-0.754 2.346-1.459 3.064-4.542 1.606-6.887C31.816 195.983 28.41 189.169 25.681 182.15z" data-fill-palette-color="accent"></path><path fill="#25b5f7" d="M66.237 235.71c-6.021-4.545-11.655-9.678-16.751-15.254-1.863-2.039-5.027-2.181-7.064-0.318-2.038 1.863-2.181 5.025-0.317 7.064 5.508 6.026 11.601 11.574 18.107 16.488 0.901 0.682 1.96 1.01 3.01 1.01 1.515 0 3.011-0.686 3.993-1.986C68.878 240.511 68.441 237.375 66.237 235.71z" data-fill-palette-color="accent"></path><path fill="#25b5f7" d="M106.616 255.808c-7.253-2.055-14.359-4.805-21.122-8.17-2.473-1.23-5.474-0.227-6.704 2.246s-0.225 5.475 2.247 6.705c7.316 3.643 15.006 6.617 22.854 8.84 0.455 0.129 0.914 0.189 1.364 0.189 2.181 0 4.186-1.438 4.809-3.639C110.817 259.324 109.273 256.56 106.616 255.808z" data-fill-palette-color="accent"></path><path fill="#25b5f7" d="M13.597 119.273c0.307 0.057 0.611 0.084 0.912 0.084 2.364 0 4.468-1.685 4.911-4.094 1.369-7.422 3.441-14.752 6.157-21.786 0.995-2.576-0.287-5.471-2.863-6.465-2.57-0.995-5.471 0.286-6.465 2.863-2.938 7.612-5.182 15.543-6.663 23.574C9.086 116.165 10.881 118.772 13.597 119.273z" data-fill-palette-color="accent"></path><path fill="#25b5f7" d="M19.473 160.5c-1.382-7.384-2.085-14.851-2.094-22.433-0.003-2.76-2.24-4.75-5-4.75-0.002 0-0.004 0-0.006 0-2.761 0-4.997 2-4.994 4.761 0.01 8.193 0.771 16.152 2.264 24.137 0.448 2.404 2.549 4.083 4.908 4.083 0.306 0 0.614 0.033 0.926-0.025C18.191 165.765 19.98 163.214 19.473 160.5z" data-fill-palette-color="accent"></path><path fill="#25b5f7" d="M28.778 74.818c0.82 0.507 1.729 0.749 2.626 0.749 1.675 0 3.312-0.841 4.257-2.37 3.966-6.411 8.556-12.497 13.641-18.088 1.857-2.043 1.708-5.206-0.335-7.063s-5.207-1.708-7.062 0.335c-5.497 6.044-10.458 12.624-14.746 19.556C25.704 70.284 26.43 73.366 28.778 74.818z" data-fill-palette-color="accent"></path><path fill="#25b5f7" d="M63 40.835c1.054 0 2.114-0.332 3.019-1.017 6.021-4.566 12.488-8.593 19.228-11.968 2.469-1.237 3.468-4.241 2.231-6.71-1.236-2.468-4.238-3.468-6.71-2.231-7.287 3.65-14.283 8.004-20.792 12.942-2.2 1.669-2.631 4.805-0.962 7.005C59.997 40.153 61.49 40.835 63 40.835z" data-fill-palette-color="accent"></path><path fill="#25b5f7" d="M285.604 253.292l-89.312-87.67c1.742-0.218 3.392-1.323 4.104-3.042 3.272-7.901 5.043-16.278 5.043-24.899v-0.216c0-2.761-2.238-5-5-5s-5 2.239-5 5v0.216c0 7.3-1.515 14.39-4.281 21.071-0.201 0.487-0.301 0.986-0.351 1.485l-38.15-37.45c-4.876-4.787-12.145-6.188-18.451-3.559-6.307 2.63-10.427 8.78-10.458 15.613l-0.255 55.302c-1.477-0.471-2.939-0.991-4.381-1.587-2.553-1.053-5.476 0.103-6.531 2.654-1.055 2.553 0.159 5.364 2.711 6.419 2.666 1.102 5.391 1.978 8.154 2.677l-0.539 117.023c-0.031 6.852 4.054 13.053 10.361 15.729 2.142 0.908 4.396 1.35 6.635 1.35 4.352 0 8.636-1.566 11.874-4.727l35.503-34.555 39.243 94.941c2.709 6.553 9.042 10.512 15.718 10.512 2.163 0 4.363-0.416 6.487-1.295 8.677-3.586 12.803-13.527 9.217-22.205l-38.841-93.967 55.061 0.203c0.006 0 0.01 0 0.017 0s0.014-0.207 0.02-0.209c9.39 0 17-7.818 17-17.208C291.2 260.9 289.041 256.403 285.604 253.292z" data-fill-palette-color="accent"></path></g></svg></g></svg></g></svg></g></svg></g><path d="M253.709 45.662L253.709 2.068 10.644 2.068 10.644 245.132 253.709 245.132 253.709 201.538 240.734 201.538 240.734 232.158 23.618 232.158 23.618 15.042 240.734 15.042 240.734 45.662Z" fill="#ff7c5e" stroke="transparent" data-fill-palette-color="tertiary"></path></svg></g><defs></defs></svg><rect width="395.52" height="247.2" fill="none" stroke="none" visibility="hidden"></rect></g></svg></g></svg>