<svg xmlns="http://www.w3.org/2000/svg" xmlns:xlink="http://www.w3.org/1999/xlink" viewBox="0,0,256,256" width="48px" height="48px"><defs><linearGradient x1="11.195" y1="11.196" x2="38.591" y2="38.592" gradientUnits="userSpaceOnUse" id="color-1"><stop offset="0" stop-color="#f44f5a"></stop><stop offset="0.443" stop-color="#ee3d4a"></stop><stop offset="1" stop-color="#e52030"></stop></linearGradient></defs><g transform="translate(25.6,25.6) scale(0.8,0.8)"><g fill="none" fill-rule="nonzero" stroke="none" stroke-width="1" stroke-linecap="butt" stroke-linejoin="miter" stroke-miterlimit="10" stroke-dasharray="" stroke-dashoffset="0" font-family="none" font-weight="none" font-size="none" text-anchor="none" style="mix-blend-mode: normal"><g transform="scale(5.33333,5.33333)"><path d="M29.103,2.631c4.217,-2.198 9.438,-0.597 11.658,3.577c2.22,4.173 0.6,9.337 -3.617,11.534l-3.468,1.823c2.987,0.109 5.836,1.75 7.328,4.555c2.22,4.173 0.604,9.337 -3.617,11.534l-18.49,9.716c-4.217,2.198 -9.438,0.597 -11.658,-3.577c-2.22,-4.174 -0.6,-9.337 3.617,-11.534l3.468,-1.823c-2.987,-0.109 -5.836,-1.75 -7.328,-4.555c-2.22,-4.173 -0.6,-9.337 3.617,-11.534c-0.001,-0.001 18.49,-9.716 18.49,-9.716z" fill="url(#color-1)"></path><path d="M19.804,31.558c-0.928,0 -1.682,-0.754 -1.682,-1.681v-11.725c0,-0.927 0.754,-1.681 1.681,-1.681c0.312,0 0.616,0.087 0.883,0.252l9.518,5.875c0.5,0.31 0.798,0.844 0.797,1.431c0,0.586 -0.299,1.121 -0.801,1.429l-9.518,5.848c-0.266,0.166 -0.57,0.252 -0.878,0.252z" fill="#000000" opacity="0.05"></path><path d="M19.804,31.058c-0.651,0 -1.182,-0.53 -1.182,-1.181v-11.725c0,-0.651 0.53,-1.181 1.181,-1.181c0.218,0 0.432,0.061 0.619,0.177l9.519,5.876c0.351,0.217 0.561,0.592 0.56,1.005c0,0.413 -0.211,0.788 -0.562,1.004l-9.518,5.848c-0.189,0.117 -0.401,0.177 -0.617,0.177z" fill="#000000" opacity="0.07"></path><path d="M19.122,18.152v11.725c0,0.532 0.583,0.857 1.036,0.579l9.518,-5.848c0.431,-0.265 0.432,-0.892 0.001,-1.158l-9.518,-5.876c-0.453,-0.279 -1.037,0.046 -1.037,0.578z" fill="#ffffff"></path></g></g></g></svg>